<?xml version="1.0" encoding="UTF-8" standalone="no"?>
<!-- Created with Inkscape (http://www.inkscape.org/) -->

<svg
   width="1600"
   height="480"
   viewBox="0 0 423.33332 127"
   version="1.1"
   id="svg5"
   inkscape:version="1.2.2 (b0a84865, 2022-12-01)"
   sodipodi:docname="brandh2.svg"
   xml:space="preserve"
   xmlns:inkscape="http://www.inkscape.org/namespaces/inkscape"
   xmlns:sodipodi="http://sodipodi.sourceforge.net/DTD/sodipodi-0.dtd"
   xmlns="http://www.w3.org/2000/svg"
   xmlns:svg="http://www.w3.org/2000/svg"><sodipodi:namedview
     id="namedview7"
     pagecolor="#ffffff"
     bordercolor="#000000"
     borderopacity="0.25"
     inkscape:showpageshadow="2"
     inkscape:pageopacity="0.0"
     inkscape:pagecheckerboard="0"
     inkscape:deskcolor="#d1d1d1"
     inkscape:document-units="mm"
     showgrid="false"
     inkscape:zoom="0.68919638"
     inkscape:cx="782.07027"
     inkscape:cy="293.09498"
     inkscape:window-width="1512"
     inkscape:window-height="916"
     inkscape:window-x="0"
     inkscape:window-y="38"
     inkscape:window-maximized="0"
     inkscape:current-layer="layer1" /><defs
     id="defs2"><rect
       x="157.81493"
       y="163.55365"
       width="1213.7404"
       height="464.8367"
       id="rect113" /></defs><g
     inkscape:label="Layer 1"
     inkscape:groupmode="layer"
     id="layer1"><text
       xml:space="preserve"
       transform="matrix(0.26458333,0,0,0.26458333,73.336561,-45.49312)"
       id="text111"
       style="font-size:373.333px;text-align:center;white-space:pre;shape-inside:url(#rect113);display:inline;fill:#27081b;fill-opacity:1"
       inkscape:transform-center-x="-15.183709"
       inkscape:transform-center-y="2.2775564"
       x="151.62691"
       y="0"><tspan
         x="222.04619"
         y="504.15576"
         id="tspan4666"><tspan
           style="font-weight:bold;font-family:Jost;-inkscape-font-specification:'Jost Bold'"
           id="tspan4664">soop2</tspan></tspan></text><g
       style="display:block;stroke-width:1.00053746;stroke-dasharray:none"
       id="g509"
       transform="matrix(0.46674914,0,0,0.46674914,20.019801,16.82511)"><path
         d="m 0,0 c 17.047616,-3.2345691 34.108378,-4.0417962 51.426697,-4.0117264 1.16003,-0.00201 2.320061,-0.00403 3.515243,-0.0061 30.976367,0.053819 65.83606,2.7759873 91.97731,21.1822504 12.27568,9.699378 18.23064,24.851376 22.47043,39.482976 5.60678,21.162431 7.07489,42.526646 7.03702,64.34087 0.002,1.16003 0.004,2.32006 0.006,3.51525 -0.0538,30.97636 -2.77599,65.83605 -21.18225,91.97731 -9.69938,12.27568 -24.85138,18.23063 -39.48298,22.47042 -21.162426,5.60678 -42.526642,7.0749 -64.340873,7.03702 -1.740046,0.003 -1.740046,0.003 -3.515244,0.006 -30.976366,-0.0538 -65.836057,-2.77599 -91.97731,-21.18225 -12.275681,-9.69938 -18.230636,-24.85138 -22.470426,-39.48298 -5.60678,-21.16243 -7.074896,-42.52664 -7.03702,-64.34088 -0.002,-1.16003 -0.004,-2.32006 -0.0061,-3.51524 0.05382,-30.976363 2.775988,-65.836053 21.182251,-91.977306 C -40.003188,9.8097249 -18.770165,3.8899563 0,0 Z"
         transform="translate(48.573303,-20.988274)"
         style="fill:#27081b;stroke-width:1.00053746;stroke-dasharray:none"
         id="path495" /><path
         d="m 0,0 c 17.047616,-3.2345691 34.108378,-4.0417962 51.426697,-4.0117264 1.16003,-0.00201 2.320061,-0.00403 3.515243,-0.0061 30.976367,0.053819 65.83606,2.7759873 91.97731,21.1822504 12.27568,9.699378 18.23064,24.851376 22.47043,39.482976 5.60678,21.162431 7.07489,42.526646 7.03702,64.34087 0.002,1.16003 0.004,2.32006 0.006,3.51525 -0.0538,30.97636 -2.77599,65.83605 -21.18225,91.97731 -9.69938,12.27568 -24.85138,18.23063 -39.48298,22.47042 -21.162426,5.60678 -42.526642,7.0749 -64.340873,7.03702 -1.740046,0.003 -1.740046,0.003 -3.515244,0.006 -30.976366,-0.0538 -65.836057,-2.77599 -91.97731,-21.18225 -12.275681,-9.69938 -18.230636,-24.85138 -22.470426,-39.48298 -5.60678,-21.16243 -7.074896,-42.52664 -7.03702,-64.34088 -0.002,-1.16003 -0.004,-2.32006 -0.0061,-3.51524 0.05382,-30.976363 2.775988,-65.836053 21.182251,-91.977306 C -40.003188,9.8097249 -18.770165,3.8899563 0,0 Z m -25.190491,39.769524 c -9.609057,8.947449 -15.281397,19.656119 -18.257812,32.40625 -2.501509,13.520059 -0.922499,26.417898 4.875,38.999996 6.366004,11.6341 16.628926,20.57909 26.00898,29.80495 1.743351,1.71615 3.4818171,3.43711 5.2189861,5.15952 4.9286094,4.88635 9.8605428,9.76924 14.8076782,14.63685 3.0491817,3.00085 6.0886647,6.01122 9.1219097,9.02817 1.152682,1.14277 2.309014,2.28187 3.46901,3.41722 1.607799,1.5743 3.202412,3.16202 4.796287,4.75041 0.910582,0.89869 1.821164,1.79737 2.759339,2.72328 0.599877,0.7564 1.199754,1.51279 1.81781,2.2921 -0.33,0.99 -0.66,1.98 -1,3 -5.676065,2.68867 -11.786253,3.58254 -18,3 -8.7560655,-1.68386 -14.4591534,-5.53962 -20.75,-11.6875 -3.358569,-4.94456 -5.814455,-10.58849 -6.514893,-16.57739 -0.686563,-5.26161 -1.909987,-8.46995 -5.473388,-12.46558 -1.504021,-1.50664 -3.029408,-2.99223 -4.574219,-4.45703 -1.139854,-1.16112 -1.139854,-1.16112 -2.302735,-2.3457 -2.991715,-2.98919 -2.991715,-2.98919 -6.384765,-5.4668 -2.65978,-0.0825 -2.65978,-0.0825 -5,1 -4.455151,9.22853 -4.990953,19.46409 -3.46875,29.50391 1.375263,6.92863 3.06461,13.29178 6.46875,19.49609 0.482109,0.88301 0.964219,1.76602 1.460937,2.67578 6.676266,11.33085 15.586199,18.23928 27.4375003,23.66016 12.1417753,4.92609 24.0911307,5.84562 36.8906247,3.47656 16.552238,-4.1884 27.305065,-14.59393 38.917906,-26.43027 1.890466,-1.9257 3.788324,-3.84383 5.688311,-5.76014 5.393161,-5.44172 10.774393,-10.89513 16.147445,-16.35671 3.303411,-3.3568 6.616362,-6.70393 9.935473,-10.04521 1.260136,-1.27256 2.516456,-2.54892 3.768906,-3.82906 1.74001,-1.77821 3.49178,-3.54397 5.24679,-5.30737 0.99354,-1.00845 1.98708,-2.01691 3.01073,-3.05592 0.82347,-0.66918 1.64695,-1.33836 2.49538,-2.02782 0.99,0.33 1.98,0.66 3,1 2.73035,6.37082 3.90989,12.09308 3,19 -1.81942,7.75418 -5.05208,13.68073 -11,19 -5.23315,4.03818 -10.583636,6.52261 -17.240482,7.24219 -5.093091,0.66562 -8.355742,1.80522 -12.200927,5.27734 -1.394742,1.41049 -2.768412,2.8421 -4.121094,4.29297 -0.709629,0.71221 -1.419258,1.42442 -2.150391,2.15821 -3.828598,3.84126 -3.828598,3.84126 -6.099365,8.6687 -0.06196,0.77899 -0.123911,1.55799 -0.187744,2.36059 3.505539,3.38035 8.335602,3.91811 12.992187,4.64453 13.326378,1.57494 26.859926,-0.63777 38.710936,-7.17968 11.21646,-7.15335 19.36754,-16.1995 25.04297,-28.26172 5.09218,-13.00806 5.56902,-26.12941 2.34375,-39.625 -5.23705,-17.19404 -17.62786,-28.30461 -30.09882,-40.57058 -1.74335,-1.716141 -3.48182,-3.437105 -5.21899,-5.159509 -4.92861,-4.886357 -9.86054,-9.769248 -14.807678,-14.636856 -3.049181,-3.000846 -6.088664,-6.011216 -9.12191,-9.028166 -1.152682,-1.142773 -2.309013,-2.281877 -3.469009,-3.417224 -1.6078,-1.574294 -3.202413,-3.162021 -4.796288,-4.750411 -0.910581,-0.898683 -1.821163,-1.797366 -2.759338,-2.723281 -0.599877,-0.756393 -1.199755,-1.512786 -1.81781,-2.292099 0.33,-0.99 0.66,-1.98 1,-3 5.808316,-2.800439 12.629023,-3.95828 19,-3 6.153189,1.654995 11.223323,3.685581 16.000003,8 0.66,0 1.32,0 2,0 0.99,1.98 0.99,1.98 2,4 0.60328,0.94166 0.60328,0.94166 1.21875,1.902343 2.88712,4.585951 4.09158,8.251929 4.65625,13.660157 0.56633,4.438015 1.16727,7.227052 4.125,10.625 1.31615,1.288618 2.65146,2.557814 4,3.8125 0.82757,0.881718 1.65515,1.763437 2.50781,2.671875 4.44673,5.052651 4.44673,5.052651 10.19141,8.226561 0.75925,0.0335 1.51851,0.067 2.30078,0.10156 3.72192,-3.99762 4.35492,-9.753391 5,-14.999996 1.04243,-14.01891 -1.63362,-26.973252 -9,-39 -7.48303,-11.071667 -17.4865,-19.212356 -30,-24 -16.22544,-4.483567 -29.762107,-3.467347 -45.468753,2.195312 -10.392533,5.311228 -18.457631,13.349618 -26.529145,21.607653 -1.917888,1.961398 -3.845917,3.912321 -5.776763,5.86096 -4.78146,4.82915 -9.547783,9.673125 -14.310364,14.520889 -4.051019,4.123225 -8.1096082,8.23866 -12.1799318,12.342833 -1.9019087,1.92413 -3.79185352,3.859519 -5.6818238,5.795366 -1.1564421,1.167766 -2.3134732,2.334949 -3.4711914,3.50145 -1.0082885,1.026219 -2.0165771,2.052439 -3.0554199,3.109756 -0.8337817,0.681708 -1.6675635,1.363415 -2.5266111,2.065781 -0.99,-0.33 -1.98,-0.66 -3,-1 -2.688662,-5.676065 -3.582539,-11.786253 -3,-18 1.683858,-8.756066 5.539627,-14.459154 11.6874998,-20.75 4.94455976,-3.358569 10.5884894,-5.814455 16.5773922,-6.514893 5.261615,-0.686563 8.469955,-1.909988 12.465577,-5.473389 1.506648,-1.504021 2.992235,-3.029407 4.457031,-4.574218 1.161123,-1.139854 1.161123,-1.139854 2.345703,-2.302735 2.989194,-2.991715 2.989194,-2.991715 5.466797,-6.384765 0.08254,-2.65978 0.08254,-2.65978 -1,-5 -19.828401,-9.572332 -44.4408728,-2.808883 -60.617188,10.78125 z"
         style="fill:#ffffff;stroke-width:1.00053746;stroke-dasharray:none"
         id="path497"
         transform="translate(48.573303,-20.988274)" /><path
         d="M 0,0 C 0.99,0.495 0.99,0.495 2,1 1.67,2.32 1.34,3.64 1,5 0.60518009,11.613233 0.9840583,17.03347 4,23 c 8.249898,10.726799 18.949739,19.944858 28.621582,29.374756 2.265201,2.211334 4.51802,4.434649 6.769043,6.6604 0.709085,0.685303 1.41817,1.370606 2.148743,2.076676 C 43.454102,63.015869 43.454102,63.015869 46,66 41.853007,67.382331 38.047184,66.819944 33.714844,66.546875 27.55558,67.298163 22.396615,70.019944 17.620468,73.965942 15.202427,76.272288 12.873597,78.641236 10.5625,81.054687 9.7157471,81.91563 8.8689941,82.776573 7.996582,83.663605 5.3187083,86.388975 2.6582373,89.130484 0,91.875 c -2.6886454,2.763983 -5.3808785,5.524142 -8.0822754,8.27567 -1.675049,1.70719 -3.3424326,3.42195 -5.0014646,5.14471 -0.748382,0.76475 -1.496763,1.52949 -2.267823,2.31741 -0.987341,1.01996 -0.987341,1.01996 -1.994628,2.06052 -0.545757,0.43781 -1.091514,0.87562 -1.653809,1.32669 -0.99,-0.495 -0.99,-0.495 -2,-1 -0.06482,-3.67163 0.137143,-7.30561 0.320313,-10.972656 C -21.058595,94.263269 -22.421161,90.943934 -25,87 c -2.975242,-3.440257 -6.219111,-6.568074 -9.5,-9.714844 -1.873753,-1.837834 -3.747449,-3.675726 -5.621094,-5.513672 -2.95773,-2.8763 -5.919534,-5.748328 -8.883301,-8.618408 -2.862784,-2.779194 -5.710916,-5.572765 -8.558105,-8.36792 -1.357383,-1.299851 -1.357383,-1.299851 -2.742187,-2.625961 -0.808243,-0.794954 -1.616485,-1.589908 -2.449219,-2.408951 -0.725178,-0.70201 -1.450357,-1.404021 -2.19751,-2.127304 C -65.297449,47.08737 -65.643481,46.5518 -66,46 c 3.522973,-0.880743 5.712048,-1.026627 9.25,-0.875 C -51.469562,45.132 -47.76282,44.49481 -43,42 -32.396489,33.578292 -23.164211,23.183742 -13.700684,13.529297 -11.49454,11.281153 -9.2793259,9.0422914 -7.0625,6.8046875 -6.3823584,6.105925 -5.7022168,5.4071625 -5.0014648,4.6872253 -3.3902695,3.0671713 -1.7023903,1.5239399 0,0 Z"
         transform="translate(110,44)"
         style="fill:#362931;stroke-width:1.00053746;stroke-dasharray:none"
         id="path499" /></g></g></svg>
