<svg id="svg" version="1.1" xmlns="http://www.w3.org/2000/svg" style="display: block;" viewBox="0 0 817 267"><path d="M0 0 C269.61 0 539.22 0 817 0 C817 88.11 817 176.22 817 267 C547.39 267 277.78 267 0 267 C0 178.89 0 90.78 0 0 Z " transform="translate(0,0)" style="fill: #FEFEFE;"/><path d="M0 0 C1 1 1 1 1.2734375 3.29248047 C0.52824643 10.67120276 -9.18649532 17.58548594 -14.51513672 22.19384766 C-19.27183721 25.65131182 -23.76522906 26.15381239 -29.5 26.66015625 C-36.72620223 27.36180758 -42.5798245 31.62629579 -47.42578125 36.87890625 C-54.00339244 45.74154366 -55.14903953 55.22775445 -54 66 C-53.25048091 69.2195252 -52.287808 71.941456 -51 75 C-45.78624599 74.67192813 -43.17025887 71.68704741 -39.73193359 68.12255859 C-39.12464417 67.5094281 -38.51735474 66.89629761 -37.8916626 66.2645874 C-36.57497904 64.93269384 -35.26293673 63.59619963 -33.95502853 62.25568771 C-31.87755308 60.12703864 -29.78773258 58.01124128 -27.69424438 55.89834595 C-22.49242338 50.64309495 -17.31228769 45.36663455 -12.13183594 40.09033203 C-7.76007107 35.63921958 -3.37993172 31.19666822 1.0113945 26.76485062 C3.0574517 24.69310218 5.09094291 22.60956167 7.12417603 20.52523804 C15.8606258 11.65087397 24.3301764 4.12156618 36.375 0.125 C37.51710938 -0.26429687 38.65921875 -0.65359375 39.8359375 -1.0546875 C55.68072857 -5.78856335 72.37699702 -3.37119232 86.91967773 4.11083984 C101.56188627 12.04568328 111.35225939 24.35298093 117 40 C118.81645167 46.2994334 119.35352534 52.3380861 119.3125 58.875 C119.31048584 59.74616455 119.30847168 60.6173291 119.30639648 61.51489258 C119.06662684 76.93337316 119.06662684 76.93337316 115 81 C111.93812845 81.37149973 110.47249125 81.3266776 107.90356445 79.55053711 C107.230271 78.8828833 106.55697754 78.21522949 105.86328125 77.52734375 C105.12142578 76.79193359 104.37957031 76.05652344 103.61523438 75.29882812 C102.85533203 74.51958984 102.09542969 73.74035156 101.3125 72.9375 C100.54099609 72.18533203 99.76949219 71.43316406 98.97460938 70.65820312 C94.61023518 66.25571213 92.01351516 63.15507019 91 57 C90.75636719 55.71802734 90.75636719 55.71802734 90.5078125 54.41015625 C90.38148438 53.63542969 90.25515625 52.86070313 90.125 52.0625 C88.31387511 42.99315492 84.17384841 36.86124209 77 31 C68.00596732 25.3461425 57.33973964 24.34759788 47.015625 26.671875 C44.9784333 27.3595894 42.98164489 28.1656232 41 29 C41.31859865 34.24416499 44.36418794 36.86750335 47.95336914 40.31225586 C48.57464691 40.92447998 49.19592468 41.5367041 49.83602905 42.16748047 C51.18600846 43.49555511 52.54050499 44.81905015 53.89894295 46.1384716 C56.05799256 48.23704035 58.20328186 50.34881726 60.34532166 52.46473694 C66.43817343 58.47826606 72.5556257 64.46653426 78.68041992 70.44750977 C82.42927124 74.11018498 86.16279061 77.787962 89.88809013 81.47458076 C91.30181587 82.86736588 92.72132646 84.25430731 94.14698982 85.63487053 C108.43288656 99.47002469 118.79936801 113.83970461 119.41772461 134.54980469 C119.54751667 151.86182212 114.50365663 167.24698326 102.2265625 179.83203125 C101.49179688 180.54746094 100.75703125 181.26289063 100 182 C99.40960938 182.62261719 98.81921875 183.24523437 98.2109375 183.88671875 C94.01476702 187.99970524 89.25314964 190.66106167 84.0625 193.3125 C83.40628662 193.65039551 82.75007324 193.98829102 82.07397461 194.33642578 C73.97178523 198.28993388 66.07503689 199.36866997 57.125 199.3125 C56.25383545 199.31048584 55.3826709 199.30847168 54.48510742 199.30639648 C39.06662684 199.06662684 39.06662684 199.06662684 35 195 C34.62432029 191.92782544 34.66955451 190.47276499 36.46533203 187.90356445 C37.13935059 187.230271 37.81336914 186.55697754 38.5078125 185.86328125 C39.24773437 185.12142578 39.98765625 184.37957031 40.75 183.61523438 C41.53375 182.85533203 42.3175 182.09542969 43.125 181.3125 C43.88554687 180.54099609 44.64609375 179.76949219 45.4296875 178.97460938 C51.11864436 173.35921661 55.39892129 171.25436765 63.3125 170.1875 C72.28759845 168.60437544 79.34135462 164.14312118 85 157 C90.50543957 148.06411935 90.60688526 139.23613142 90 129 C89.28710259 125.99919925 88.38465371 123.76930743 87 121 C81.79424584 121.3297073 79.19192398 124.29720355 75.76367188 127.86157227 C75.15959503 128.47309647 74.55551819 129.08462067 73.93313599 129.7146759 C72.62303478 131.04333402 71.3175445 132.37655089 70.01615906 133.71374702 C67.94690809 135.83883757 65.86487233 137.95060912 63.77893066 140.05931091 C58.59423994 145.3054006 53.42921954 150.57068893 48.26916504 155.84100342 C43.91720632 160.28571743 39.55513152 164.71998376 35.17835999 169.14027214 C33.1427634 171.20421044 31.12256104 173.28241819 29.10241699 175.36146545 C15.83091414 188.86307379 1.30298426 198.89821943 -18.31738281 199.24194336 C-35.76665978 199.30286445 -51.0382465 194.55264831 -63.86743164 182.32788086 C-71.89987077 174.29544173 -77.31819393 165.73239015 -81 155 C-81.24621094 154.29875 -81.49242187 153.5975 -81.74609375 152.875 C-84.99267608 141.41120584 -83.99467402 127.07331918 -80 116 C-79 115 -79 115 -76.70751953 114.7265625 C-69.32749026 115.47188556 -62.41084511 125.19021031 -57.80175781 130.51953125 C-54.36023794 135.25745021 -53.90676749 139.72623751 -53.40234375 145.43359375 C-52.58406438 152.68688564 -48.39479509 157.93807542 -43.25 162.875 C-34.30218537 170.00292013 -25.24555665 171.06575537 -14 170 C-10.77623083 169.25572611 -8.06129052 168.28896443 -5 167 C-5.32807187 161.78624599 -8.31295259 159.17025887 -11.87744141 155.73193359 C-12.79713715 154.82099945 -12.79713715 154.82099945 -13.7354126 153.8916626 C-15.06730616 152.57497904 -16.40380037 151.26293673 -17.74431229 149.95502853 C-19.87296136 147.87755308 -21.98875872 145.78773258 -24.10165405 143.69424438 C-29.35690505 138.49242338 -34.63336545 133.31228769 -39.90966797 128.13183594 C-44.36078042 123.76007107 -48.80333178 119.37993172 -53.23514938 114.9886055 C-55.30689782 112.9425483 -57.39043833 110.90905709 -59.47476196 108.87582397 C-68.34912603 100.1393742 -75.87843382 91.6698236 -79.875 79.625 C-80.26429687 78.48289062 -80.65359375 77.34078125 -81.0546875 76.1640625 C-85.81939786 60.21606503 -83.3664902 43.38097283 -75.66796875 28.8203125 C-73.13760074 24.54179798 -70.26763932 20.73858512 -67 17 C-66.49082031 16.39671875 -65.98164062 15.7934375 -65.45703125 15.171875 C-50.009806 -1.76286083 -21.46217636 -8.98524954 0 0 Z " transform="translate(116,34)" style="fill: #4D173E;"/><path d="M0 0 C7.92 0 15.84 0 24 0 C24 1.65 24 3.3 24 5 C24.680625 4.71125 25.36125 4.4225 26.0625 4.125 C37.65596716 -0.31505125 50.41788148 -1.05069617 62 4 C74.37016505 9.67572279 82.04097911 18.07436961 87.1015625 30.76171875 C90.73200252 42.38251975 89.7866668 53.86887544 85 65 C78.41726862 77.03991801 68.6225724 84.67391586 55.6171875 88.74609375 C44.87142804 91.46061487 35.37530294 89.45843431 25 86 C24.67 104.81 24.34 123.62 24 143 C16.08 143 8.16 143 0 143 C0 95.81 0 48.62 0 0 Z " transform="translate(596,87)" style="fill: #8C7894;"/><path d="M0 0 C10.93059095 6.37058982 18.24398324 14.60992657 22.30078125 26.73828125 C25.49830943 39.2377096 23.2230669 51.58751246 17.2421875 62.88671875 C9.5627692 74.65356937 -2.14231508 84.28852963 -13.1953125 92.70703125 C-24.26549427 101.31051184 -24.26549427 101.31051184 -32.453125 112.484375 C-15.293125 112.814375 1.866875 113.144375 19.546875 113.484375 C19.546875 121.734375 19.546875 129.984375 19.546875 138.484375 C-6.853125 138.484375 -33.253125 138.484375 -60.453125 138.484375 C-60.453125 116.38304297 -58.85875558 100.59953221 -43.390625 84.921875 C-38.43179194 80.0644628 -33.14403072 75.72668299 -27.63256836 71.51635742 C-11.66372727 59.85464596 -11.66372727 59.85464596 -2.453125 43.484375 C-1.72048691 36.59299796 -2.21716281 32.05800946 -6.453125 26.484375 C-10.1971931 22.8339086 -13.31714984 22.16256421 -18.390625 21.921875 C-23.24596695 22.09657093 -26.42082232 22.8050924 -30.12109375 25.9921875 C-33.54878508 29.83200594 -34.4559507 33.49850351 -35.453125 38.484375 C-43.373125 38.484375 -51.293125 38.484375 -59.453125 38.484375 C-61.1228649 30.13567552 -58.65991332 22.9674541 -54.328125 15.734375 C-42.26177869 -1.78454621 -19.66476308 -9.66941389 0 0 Z " transform="translate(759.453125,38.515625)" style="fill: #4C163D;"/><path d="M0 0 C12.42004544 6.90228755 21.84997652 16.22290268 25.94067383 30.23510742 C28.47009045 42.18663586 26.85952878 54.70853436 20.72265625 65.1484375 C13.61106865 75.85232603 3.47052073 82.90839218 -9.03125 85.90234375 C-21.1191225 87.87438337 -32.77400588 85.87536873 -42.9921875 79.01171875 C-44.55669382 77.81175759 -46.1002939 76.58383004 -47.6171875 75.32421875 C-48.58785156 74.53917969 -48.58785156 74.53917969 -49.578125 73.73828125 C-57.38221243 66.75208945 -62.03127007 55.88513132 -62.953125 45.5625 C-63.0982439 30.97805008 -59.67913834 19.9957689 -49.55078125 9.1015625 C-36.88937766 -3.01623879 -16.31470647 -7.28791747 0 0 Z " transform="translate(554.6171875,90.67578125)" style="fill: #4B153D;"/><path d="M0 0 C0.78753662 -0.01023193 1.57507324 -0.02046387 2.38647461 -0.03100586 C13.31557746 0.13204701 22.83500493 4.67052749 31.0625 11.75 C31.825625 12.636875 32.58875 13.52375 33.375 14.4375 C33.93960938 15.07300781 34.50421875 15.70851563 35.0859375 16.36328125 C40.91746302 23.28975566 44.60025495 31.3342457 45.375 40.4375 C45.43816406 41.13875 45.50132812 41.84 45.56640625 42.5625 C46.11615067 53.6283231 42.14648931 64.72716546 35.375 73.4375 C26.44690237 82.93483875 16.47496723 88.45923092 3.390625 89.7265625 C-11.02789178 90.13745287 -22.79954868 84.90556058 -33.2578125 75.1640625 C-41.13122025 66.09535192 -45.15163858 54.29468797 -44.87109375 42.36328125 C-43.86307272 30.37903127 -39.04289342 20.04670918 -30.625 11.4375 C-21.11752116 3.57222205 -12.26390415 0.12250821 0 0 Z " transform="translate(434.625,87.5625)" style="fill: #4B153C;"/><path d="M0 0 C-0.10699219 0.90621094 -0.21398437 1.81242187 -0.32421875 2.74609375 C-1.36355908 13.30713264 -0.54684688 20.50197378 6 29 C8.85979424 32.09705294 11.87075707 35.03236801 14.88671875 37.9765625 C16.64659637 39.71603253 18.40635857 41.45561934 20.16601562 43.1953125 C22.93545669 45.92113061 25.70731762 48.64443494 28.48168945 51.36523438 C31.16473203 54.00014106 33.8386205 56.64407361 36.51171875 59.2890625 C37.34708664 60.10267242 38.18245453 60.91628235 39.0431366 61.75454712 C39.81095963 62.51568817 40.57878265 63.27682922 41.36987305 64.06103516 C42.04841843 64.72688629 42.72696381 65.39273743 43.42607117 66.07876587 C45.07733727 68.09440262 45.60318816 69.45188226 46 72 C45.03320312 71.95359375 44.06640625 71.9071875 43.0703125 71.859375 C29.39538771 71.48026817 22.54814144 74.24836505 12.55541992 83.59692383 C5.65414381 90.15808798 -1.03725467 96.9347799 -7.75 103.6875 C-9.23674275 105.17927211 -10.72372043 106.67081013 -12.2109375 108.16210938 C-15.80999923 111.77205299 -19.40588945 115.38512717 -23 119 C-23.99 118.01 -23.99 118.01 -25 117 C-24.90625 115.15234375 -24.90625 115.15234375 -24.5 112.9375 C-23.29162064 103.61358516 -26.42242413 97.30188791 -32 90 C-34.97919204 86.67410105 -38.13846144 83.5564511 -41.3359375 80.44140625 C-42.21528961 79.57104233 -43.09464172 78.70067841 -44.00064087 77.80393982 C-46.78495565 75.04944494 -49.57905574 72.30518588 -52.375 69.5625 C-55.19203897 66.79456053 -58.00548612 64.02304774 -60.81362915 61.24607849 C-62.55580532 59.5237347 -64.30290072 57.80635025 -66.05526733 56.09437561 C-66.83673126 55.32274582 -67.61819519 54.55111603 -68.42333984 53.75610352 C-69.11583832 53.07709488 -69.80833679 52.39808624 -70.52182007 51.69850159 C-72 50 -72 50 -72 48 C-71.03320312 48.04640625 -70.06640625 48.0928125 -69.0703125 48.140625 C-56.8283692 48.48000561 -49.44557368 46.63981754 -40.375 38.3125 C-35.93679747 34.09887039 -31.81189089 29.66968304 -27.83203125 25.01953125 C-25.37987508 22.31640813 -22.6516501 20.0307707 -19.8671875 17.6796875 C-17.51318851 15.56207334 -15.58411721 13.2108899 -13.578125 10.76953125 C-11.18319442 8.08412642 -8.47639642 5.80268456 -5.734375 3.48046875 C-1.65699208 0 -1.65699208 0 0 0 Z " transform="translate(147,72)" style="fill: #FEFEFE;"/><path d="M0 0 C1.96870898 0.03015315 3.9374627 0.05751946 5.90625 0.08203125 C10.68952982 0.1424262 15.46648861 0.25988876 20.25 0.375 C20.25 8.295 20.25 16.215 20.25 24.375 C8.04 24.705 -4.17 25.035 -16.75 25.375 C-17.08 27.025 -17.41 28.675 -17.75 30.375 C-16.21521546 31.90978454 -14.76602175 31.53712753 -12.62890625 31.5859375 C12.09692745 32.34424022 12.09692745 32.34424022 21.25 41.375 C26.4011742 47.70583242 28.79666585 54.98300588 28.5703125 63.1640625 C27.62523833 69.68737933 25.15066048 76.86123377 20.25 81.375 C11.73376548 87.31100935 4.52375484 89.70364746 -5.74609375 89.5703125 C-6.99641136 89.56606766 -6.99641136 89.56606766 -8.27198792 89.56173706 C-10.9106436 89.55062289 -13.54894848 89.52553515 -16.1875 89.5 C-17.98632319 89.48995885 -19.78515175 89.48083499 -21.58398438 89.47265625 C-25.97289717 89.45242152 -30.3610601 89.4132571 -34.75 89.375 C-34.75 81.125 -34.75 72.875 -34.75 64.375 C-22.54 64.045 -10.33 63.715 2.25 63.375 C2.58 62.385 2.91 61.395 3.25 60.375 C2.59 59.385 1.93 58.395 1.25 57.375 C-0.97308283 56.96421121 -0.97308283 56.96421121 -3.5546875 57.07421875 C-4.5255127 57.07010986 -5.49633789 57.06600098 -6.49658203 57.06176758 C-7.52895996 57.06200928 -8.56133789 57.06225098 -9.625 57.0625 C-19.94837457 56.84181974 -27.30045438 55.80461748 -35.4296875 48.9609375 C-40.92283104 43.14275588 -43.00575776 36.1907517 -43.25 28.375 C-43.00527762 20.54388398 -40.91235739 13.61787635 -35.42675781 7.77905273 C-24.66319929 -1.23393869 -13.27650547 -0.35538121 0 0 Z " transform="translate(350.75,87.625)" style="fill: #8C7894;"/><path d="M0 0 C7.92 0 15.84 0 24 0 C24.8585514 4.29275701 25.1266471 7.76151054 25.12939453 12.09863281 C25.13198902 13.14904204 25.13198902 13.14904204 25.13463593 14.22067165 C25.13898962 16.54818009 25.1360443 18.87561562 25.1328125 21.203125 C25.13382844 22.85830202 25.13516807 24.51347888 25.1368103 26.1686554 C25.13951235 30.61031014 25.13504277 35.05193001 25.12857056 39.49357986 C25.12500756 42.24416458 25.12338322 44.99474408 25.12231445 47.74533081 C25.10697805 79.50668268 24.72196303 111.24651877 24 143 C16.08 143 8.16 143 0 143 C0 95.81 0 48.62 0 0 Z " transform="translate(596,87)" style="fill: #8A7692;"/><path d="M0 0 C26.07 0 52.14 0 79 0 C79 8.25 79 16.5 79 25 C52.6 25 26.2 25 -1 25 C-1 6 -1 6 0 0 Z " transform="translate(700,152)" style="fill: #8D7995;"/><path d="M0 0 C2 4 2 4 2.97265625 6.6640625 C5.89630658 14.60716985 10.2314108 22.85695878 17.97392273 27.07550049 C20.44431225 28.51036266 22.15412812 29.80683084 24 32 C25.12357412 36.42810518 24.93282541 40.72983508 24.78125 45.2734375 C24.76993042 46.55231842 24.75861084 47.83119934 24.74694824 49.14883423 C24.7098216 52.53395158 24.63810332 55.9146827 24.54931641 59.29858398 C24.46717017 62.75726592 24.43087647 66.216403 24.390625 69.67578125 C24.30251129 76.4518814 24.16447954 83.22534069 24 90 C16.08 90 8.16 90 0 90 C0 60.3 0 30.6 0 0 Z " transform="translate(596,140)" style="fill: #4B143C;"/><path d="M0 0 C4.26617842 3.45313799 7.10568817 8.32097077 8.82421875 13.4765625 C9.31746625 20.87527497 7.89201176 25.57047503 3.51171875 31.7265625 C-1.05056864 36.39494959 -4.60638676 37.66277165 -11.05078125 37.9140625 C-17.78167727 37.69747426 -22.15281758 36.42816866 -26.99609375 31.69921875 C-31.51400922 26.0570778 -31.96769659 20.74235539 -31.625 13.65234375 C-30.69793715 7.09841244 -26.71808388 3.79842 -21.95703125 -0.32421875 C-15.76203301 -4.49497414 -6.24490158 -3.5214658 0 0 Z " transform="translate(652.17578125,114.5234375)" style="fill: #FEFEFE;"/><path d="M0 0 C4.80099937 4.89120603 7.07866996 9.40739456 7.3125 16.25 C7.22868303 21.91230196 5.45642315 26.41221732 1.5390625 30.5390625 C-3.94720327 35.30125258 -8.04677993 36.47574296 -15.18359375 36.3046875 C-20.47636474 35.73209924 -24.1737999 33.98170623 -27.7890625 30.05859375 C-32.59671753 23.87244048 -33.82115283 18.79516912 -33 11 C-31.21466281 5.10328632 -28.06972664 1.37981776 -23 -2 C-14.72678434 -5.15886416 -7.4367965 -4.85888701 0 0 Z " transform="translate(448,116)" style="fill: #FEFEFE;"/><path d="M0 0 C4.62157264 3.27711515 6.81843973 6.74364836 8.22265625 12.1953125 C9.28301996 18.76339061 8.21271971 24.2413104 4.625 29.875 C-0.00897814 34.46245225 -4.48050858 36.99117687 -11.0625 37.1875 C-17.83884166 37.10847561 -22.1593336 34.75349977 -27.25 30.4375 C-31.51357116 25.29613478 -31.86969067 20.38364399 -31.7578125 13.88671875 C-31.01815639 8.06758753 -28.03870228 4.53870228 -24 0.5 C-16.43486175 -4.18318082 -7.74716523 -4.37130552 0 0 Z " transform="translate(548.375,115.125)" style="fill: #FEFEFE;"/><path d="M0 0 C7.92 0 15.84 0 24 0 C24 1.98 24 3.96 24 6 C22.0234375 7.87109375 22.0234375 7.87109375 19.375 9.4375 C10.27498092 15.33328701 6.5558289 22.27083528 2 32 C1.34 33.32 0.68 34.64 0 36 C0 24.12 0 12.24 0 0 Z " transform="translate(596,87)" style="fill: #4E1940;"/><path d="M0 0 C-1.4264578 3.2586636 -3.16704162 5.4024854 -5.6953125 7.890625 C-6.76845703 8.95410156 -6.76845703 8.95410156 -7.86328125 10.0390625 C-8.60964844 10.76867187 -9.35601562 11.49828125 -10.125 12.25 C-10.87910156 12.99507812 -11.63320312 13.74015625 -12.41015625 14.5078125 C-14.26900772 16.3431342 -16.13237005 18.1736191 -18 20 C-18.33 19.01 -18.66 18.02 -19 17 C-16.21641519 14.15862758 -13.42184273 11.32831845 -10.625 8.5 C-9.43390625 7.28376953 -9.43390625 7.28376953 -8.21875 6.04296875 C-7.45820313 5.27597656 -6.69765625 4.50898438 -5.9140625 3.71875 C-5.2123291 3.00654297 -4.5105957 2.29433594 -3.78759766 1.56054688 C-2 0 -2 0 0 0 Z " transform="translate(170,207)" style="fill: #6B3E5E;"/><path d="M0 0 C0.66 0.33 1.32 0.66 2 1 C-3.28 6.28 -8.56 11.56 -14 17 C-14 12.08113186 -10.31173311 9.3948461 -7 6 C-4.72300284 3.91201998 -2.39497582 1.9550823 0 0 Z " transform="translate(59,42)" style="fill: #5D2C4F;"/></svg>