<svg id="svg" version="1.1" xmlns="http://www.w3.org/2000/svg" style="display: block;" viewBox="0 0 200 200"><path d="M0 0 C17.04761571 -3.23456911 34.10837793 -4.04179617 51.42669678 -4.01172638 C52.58672714 -4.01374054 53.74675751 -4.0157547 54.94194031 -4.0178299 C85.91830694 -3.9640106 120.77799727 -1.24184263 146.91925049 17.16442108 C159.19493113 26.86379885 165.14988677 42.0157974 169.38967705 56.64739609 C174.9964565 77.80982681 176.46457282 99.17404197 176.42669678 120.98827362 C176.42871094 122.14830399 176.4307251 123.30833435 176.43280029 124.50351715 C176.378981 155.47988379 173.65681303 190.33957411 155.25054932 216.48082733 C145.55117155 228.75650798 130.399173 234.71146361 115.76757431 238.95125389 C94.60514358 244.55803335 73.24092843 246.02614966 51.42669678 245.98827362 C49.68665123 245.99129486 49.68665123 245.99129486 47.91145325 245.99437714 C16.93508661 245.94055784 -17.92460371 243.21838987 -44.06585693 224.81212616 C-56.34153758 215.11274839 -62.29649322 199.96074984 -66.53628349 185.32915115 C-72.14306295 164.16672043 -73.61117926 142.80250527 -73.57330322 120.98827362 C-73.57531738 119.82824326 -73.57733154 118.66821289 -73.57940674 117.47303009 C-73.52558745 86.49666345 -70.80341947 51.63697313 -52.39715576 25.49571991 C-40.00318787 9.80972485 -18.77016475 3.88995635 0 0 Z " transform="translate(48.57330322265625,-20.98827362060547)" style="fill: #27081B;"/><path d="M0 0 C17.04761571 -3.23456911 34.10837793 -4.04179617 51.42669678 -4.01172638 C52.58672714 -4.01374054 53.74675751 -4.0157547 54.94194031 -4.0178299 C85.91830694 -3.9640106 120.77799727 -1.24184263 146.91925049 17.16442108 C159.19493113 26.86379885 165.14988677 42.0157974 169.38967705 56.64739609 C174.9964565 77.80982681 176.46457282 99.17404197 176.42669678 120.98827362 C176.42871094 122.14830399 176.4307251 123.30833435 176.43280029 124.50351715 C176.378981 155.47988379 173.65681303 190.33957411 155.25054932 216.48082733 C145.55117155 228.75650798 130.399173 234.71146361 115.76757431 238.95125389 C94.60514358 244.55803335 73.24092843 246.02614966 51.42669678 245.98827362 C49.68665123 245.99129486 49.68665123 245.99129486 47.91145325 245.99437714 C16.93508661 245.94055784 -17.92460371 243.21838987 -44.06585693 224.81212616 C-56.34153758 215.11274839 -62.29649322 199.96074984 -66.53628349 185.32915115 C-72.14306295 164.16672043 -73.61117926 142.80250527 -73.57330322 120.98827362 C-73.57531738 119.82824326 -73.57733154 118.66821289 -73.57940674 117.47303009 C-73.52558745 86.49666345 -70.80341947 51.63697313 -52.39715576 25.49571991 C-40.00318787 9.80972485 -18.77016475 3.88995635 0 0 Z M-25.19049072 39.76952362 C-34.79954764 48.71697334 -40.47188847 59.42564345 -43.44830322 72.17577362 C-45.94981205 85.69583325 -44.37080202 98.59367192 -38.57330322 111.17577362 C-32.20729946 122.80986719 -21.94437732 131.75485691 -12.56432343 140.98072243 C-10.82097156 142.69686864 -9.08250589 144.41783234 -7.34533691 146.1402359 C-2.41672747 151.02659285 2.51520593 155.90948434 7.46234131 160.77709198 C10.51152267 163.77793785 13.55100588 166.78830853 16.5842514 169.8052578 C17.73693338 170.94803077 18.89326468 172.08713481 20.0532608 173.22248268 C21.66106008 174.7967763 23.25567343 176.38450312 24.84954834 177.97289276 C25.76013 178.87157578 26.67071167 179.77025879 27.60888672 180.69617462 C28.20876404 181.45256729 28.80864136 182.20895996 29.42669678 182.98827362 C29.09669678 183.97827362 28.76669678 184.96827362 28.42669678 185.98827362 C22.75063196 188.6769359 16.64044409 189.57081243 10.42669678 188.98827362 C1.67063149 187.30441491 -4.03245637 183.44864668 -10.32330322 177.30077362 C-13.68187213 172.35621384 -16.13775817 166.71228421 -16.8381958 160.72338104 C-17.52475929 155.46176641 -18.7481834 152.25342667 -22.31158447 148.25780487 C-23.81560539 146.75115684 -25.34099228 145.26556929 -26.88580322 143.80077362 C-28.02565674 142.63965057 -28.02565674 142.63965057 -29.1885376 141.4550705 C-32.18025278 138.46587612 -32.18025278 138.46587612 -35.57330322 135.98827362 C-38.23308266 135.90573704 -38.23308266 135.90573704 -40.57330322 136.98827362 C-45.02845435 146.21680096 -45.5642558 156.45235846 -44.04205322 166.49217987 C-42.66679041 173.42081372 -40.97744257 179.78395514 -37.57330322 185.98827362 C-37.09119385 186.87128143 -36.60908447 187.75428925 -36.11236572 188.66405487 C-29.43609983 199.9949005 -20.52616688 206.90333045 -8.67486572 212.32421112 C3.46690955 217.2503028 15.41626467 218.16983175 28.21575928 215.80077362 C44.76799679 211.61237289 55.52082429 201.20683514 67.13366508 189.37050438 C69.02413111 187.44480285 70.92198928 185.5266656 72.82197571 183.61035919 C78.21513744 178.16863963 83.59636855 172.71522759 88.96942139 167.25365448 C92.2728324 163.89685324 95.58578263 160.54971912 98.90489388 157.2084446 C100.16502722 155.93587528 101.42135015 154.65952126 102.6737957 153.37938499 C104.41380985 151.60117303 106.16558395 149.83540919 107.92059326 148.07201385 C108.91413315 147.06355911 109.90767303 146.05510437 110.93132019 145.01609039 C111.75479446 144.34691086 112.57826874 143.67773132 113.42669678 142.98827362 C114.41669678 143.31827362 115.40669678 143.64827362 116.42669678 143.98827362 C119.15704703 150.35909088 120.33659117 156.08134801 119.42669678 162.98827362 C117.60728194 170.74244638 114.3746173 176.66899511 108.42669678 181.98827362 C103.19355234 186.02644807 97.84306359 188.51088059 91.18621826 189.23046112 C86.09312651 189.89607885 82.8304758 191.03567954 78.98529053 194.50780487 C77.59054881 195.91829156 76.21687913 197.34990229 74.86419678 198.80077362 C74.15456787 199.51298065 73.44493896 200.22518768 72.71380615 200.95897675 C68.88520771 204.80024092 68.88520771 204.80024092 66.61444092 209.62767792 C66.55248535 210.4066745 66.49052979 211.18567108 66.42669678 211.98827362 C69.93223636 215.36861536 74.76229875 215.90637753 79.41888428 216.63280487 C92.74526193 218.20774041 106.27881203 215.99503383 118.12982178 209.45311737 C129.34627786 202.29976527 137.49736113 193.25361914 143.17279053 181.19139862 C148.26497032 168.1833381 148.74180757 155.06198607 145.51654053 141.56639862 C140.27949148 124.37235945 127.88868033 113.26179174 115.41771698 100.99582481 C113.67436512 99.2796786 111.93589944 97.5587149 110.19873047 95.83631134 C105.27012102 90.94995439 100.33818763 86.0670629 95.39105225 81.19945526 C92.34187089 78.19860939 89.30238768 75.18823871 86.26914215 72.17128944 C85.11646018 71.02851647 83.96012888 69.88941243 82.80013275 68.75406456 C81.19233348 67.17977094 79.59772013 65.59204412 78.00384521 64.00365448 C77.09326355 63.10497147 76.18268188 62.20628845 75.24450684 61.28037262 C74.64462952 60.52397995 74.0447522 59.76758728 73.42669678 58.98827362 C73.75669678 57.99827362 74.08669678 57.00827362 74.42669678 55.98827362 C80.23501335 53.18783527 87.05572011 52.02999449 93.42669678 52.98827362 C99.57988615 54.64326938 104.6500191 56.67385508 109.42669678 60.98827362 C110.08669678 60.98827362 110.74669678 60.98827362 111.42669678 60.98827362 C112.41669678 62.96827362 112.41669678 62.96827362 113.42669678 64.98827362 C114.02997803 65.92993378 114.02997803 65.92993378 114.64544678 66.89061737 C117.53257134 71.47656828 118.73703262 75.14254581 119.30169678 80.55077362 C119.86803285 84.98878902 120.46896927 87.77782621 123.42669678 91.17577362 C124.74284958 92.46439185 126.07815695 93.73358821 127.42669678 94.98827362 C128.2542749 95.86999237 129.08185303 96.75171112 129.93450928 97.66014862 C134.38123991 102.71280101 134.38123991 102.71280101 140.12591553 105.88671112 C140.88517334 105.92022675 141.64443115 105.95374237 142.42669678 105.98827362 C146.14862472 101.99064732 146.7816223 96.23487934 147.42669678 90.98827362 C148.46912852 76.96936396 145.79308004 64.01502181 138.42669678 51.98827362 C130.94366607 40.91660669 120.94019672 32.77591782 108.42669678 27.98827362 C92.20126011 23.50470666 78.66459263 24.52092696 62.95794678 30.18358612 C52.56541448 35.49481391 44.50031614 43.53320399 36.42880249 51.79123878 C34.51091439 53.75263748 32.58288509 55.70356003 30.65203857 57.65219879 C25.87057855 62.4813488 21.10425564 67.32532423 16.3416748 72.17308807 C12.29065636 76.29631275 8.23206675 80.41174841 4.16174316 84.51592064 C2.25983451 86.44005101 0.36988968 88.37543952 -1.52008057 90.31128693 C-2.67652266 91.47905279 -3.83355376 92.64623576 -4.99127197 93.81273651 C-5.99956055 94.83895615 -7.00784912 95.86517578 -8.04669189 96.92249298 C-8.88047363 97.60420059 -9.71425537 98.2859082 -10.57330322 98.98827362 C-11.56330322 98.65827362 -12.55330322 98.32827362 -13.57330322 97.98827362 C-16.2619655 92.31220881 -17.15584203 86.20202094 -16.57330322 79.98827362 C-14.88944451 71.23220834 -11.03367628 65.52912047 -4.88580322 59.23827362 C0.05875656 55.87970471 5.70268619 53.42381868 11.69158936 52.72338104 C16.95320398 52.03681755 20.16154373 50.81339344 24.15716553 47.24999237 C25.66381355 45.74597145 27.14940111 44.22058456 28.61419678 42.67577362 C29.77531982 41.5359201 29.77531982 41.5359201 30.9598999 40.37303925 C33.94909427 37.38132406 33.94909427 37.38132406 36.42669678 33.98827362 C36.50923336 31.32849418 36.50923336 31.32849418 35.42669678 28.98827362 C15.59829603 19.41594223 -9.01417576 26.17939067 -25.19049072 39.76952362 Z " transform="translate(48.57330322265625,-20.98827362060547)" style="fill: #FFFFFF;"/><path d="M0 0 C0.99 0.495 0.99 0.495 2 1 C1.67 2.32 1.34 3.64 1 5 C0.60518009 11.61323345 0.98405831 17.03347009 4 23 C12.24989795 33.7267994 22.94973917 42.94485842 32.62158203 52.37475586 C34.88678262 54.58609031 37.13960155 56.80940508 39.390625 59.03515625 C40.09971008 59.72045914 40.80879517 60.40576202 41.53936768 61.11183167 C43.45410156 63.01586914 43.45410156 63.01586914 46 66 C41.85300691 67.38233103 38.04718443 66.81994375 33.71484375 66.546875 C27.55557974 67.29816272 22.39661455 70.01994409 17.62046814 73.96594238 C15.20242728 76.27228823 12.8735972 78.64123586 10.5625 81.0546875 C9.71574707 81.91563019 8.86899414 82.77657288 7.99658203 83.66360474 C5.31870832 86.38897493 2.65823735 89.13048442 0 91.875 C-2.68864537 94.63898311 -5.38087855 97.39914169 -8.08227539 100.15066528 C-9.75732442 101.85786029 -11.42470773 103.57261581 -13.08374023 105.29537964 C-13.83212158 106.06012604 -14.58050293 106.82487244 -15.3515625 107.61279297 C-16.33890381 108.63274857 -16.33890381 108.63274857 -17.34619141 109.67330933 C-17.89194824 110.11111725 -18.43770508 110.54892517 -19 111 C-19.99 110.505 -19.99 110.505 -21 110 C-21.06482068 106.32837123 -20.86285684 102.69439402 -20.6796875 99.02734375 C-21.05859548 94.26326905 -22.42116109 90.94393438 -25 87 C-27.97524216 83.55974266 -31.21911083 80.43192558 -34.5 77.28515625 C-36.37375301 75.44732179 -38.24744933 73.60942954 -40.12109375 71.77148438 C-43.07882432 68.89518422 -46.04062814 66.02315614 -49.00439453 63.15307617 C-51.86717892 60.37388188 -54.71531147 57.58031107 -57.5625 54.78515625 C-58.91988281 53.4853054 -58.91988281 53.4853054 -60.3046875 52.15919495 C-61.11292969 51.36424118 -61.92117187 50.56928741 -62.75390625 49.75024414 C-63.47908447 49.0482338 -64.2042627 48.34622345 -64.95141602 47.62294006 C-65.29744873 47.08736984 -65.64348145 46.55179962 -66 46 C-62.47702655 45.11925664 -60.28795221 44.97337348 -56.75 45.125 C-51.46956204 45.13199396 -47.76281961 44.49481027 -43 42 C-32.39648869 33.57829193 -23.16421068 23.18374243 -13.70068359 13.52929688 C-11.49453951 11.28115347 -9.27932588 9.04229138 -7.0625 6.8046875 C-6.3823584 6.10592499 -5.7022168 5.40716248 -5.00146484 4.68722534 C-3.39026945 3.06717127 -1.70239035 1.52393991 0 0 Z " transform="translate(110,44)" style="fill: #362931;"/></svg>